<?xml version="1.0" encoding="UTF-8"?>
<svg id="Layer_1" xmlns="http://www.w3.org/2000/svg" version="1.1" viewBox="0 0 57.3 56">
  <!-- Generator: Adobe Illustrator 30.2.1, SVG Export Plug-In . SVG Version: 2.1.1 Build 1)  -->
  <defs>
    <style>
      .st0 {
        fill: #001e36;
        stroke: #001e36;
      }

      .st0, .st1 {
        stroke-miterlimit: 10;
        stroke-width: .2px;
      }

      .st1 {
        fill: #31a8ff;
        stroke: #31a8ff;
      }
    </style>
  </defs>
  <rect class="st0" x="2.3" y="2.1" width="57.3" height="55.9" rx="9.5" ry="9.5"/>
  <path class="st1" d="M15.2,41.3v-24.6c0-.2,0-.3.2-.3h.2s.4,0,.4,0h.6s1.9,0,1.9,0h2.1c.7,0,1.5,0,2.2,0,1.9,0,3.6.2,4.9.7,1.2.4,2.3,1.1,3.2,2,.8.8,1.4,1.7,1.8,2.7.4,1,.5,2,.5,3.1,0,2.1-.5,3.7-1.4,5.1-.9,1.3-2.2,2.3-3.7,2.9h-.1c-1.6.6-3.3.8-5.2.9h-.3s-.4,0-.4,0h-.2s-.2,0-.2,0h-.1s0,0,0,0h-.2s-.3,0-.3,0h-.4s0,0,0,0v7.7c0,.2,0,.3-.3.3,0,0,0,0,0,0h-4.6c-.2,0-.3-.1-.3-.3M20.4,21.1v8c.3,0,.6,0,.9,0h1.3c.9,0,1.7-.1,2.6-.4h.2c.8-.3,1.4-.7,2-1.3.5-.6.7-1.4.7-2.4h0c0-.9-.2-1.6-.6-2.2-.4-.6-1-1.1-1.7-1.4-.9-.3-1.8-.5-2.8-.5h-.5s-.3,0-.3,0h-.3s-.4,0-.4,0h-.3s-.2,0-.2,0h-.2s-.2,0-.2,0h-.1s0,0,0,0h0s0,0,0,0ZM48.2,27.7c-.7-.3-1.4-.6-2.1-.8h-.2c-.8-.2-1.6-.3-2.5-.3h-.2c-.5,0-1,0-1.4.2-.3,0-.6.2-.8.5-.1.2-.2.4-.2.7,0,.2,0,.4.2.6.2.2.4.4.7.6h0c.5.3,1.1.6,1.7.8,1.3.4,2.5,1,3.7,1.8.8.5,1.4,1.2,1.9,2,.4.8.6,1.6.6,2.5,0,1.1-.3,2.2-.9,3.2-.7,1-1.6,1.7-2.7,2.1-1.1.5-2.5.8-4.2.8h-.2c-1,0-2,0-3-.3h-.2c-.8-.2-1.7-.5-2.4-.8-.2,0-.3-.2-.3-.4v-4.2c0,0,0-.2,0-.2,0,0,.2,0,.2,0,.9.5,1.9.9,3,1.2.9.2,1.9.4,2.8.4.9,0,1.6-.1,2-.3.4-.2.6-.6.6-1,0-.3-.2-.7-.6-1-.2-.1-.4-.3-.7-.4h-.1c0,0-.2-.1-.2-.1h0s-.2-.1-.2-.1h0s-.2-.1-.2-.1h0s-.2-.1-.2-.1h-.1s-.2-.1-.2-.1h-.2c-1.2-.5-2.4-1.1-3.4-1.8-.8-.5-1.4-1.2-1.8-2-.4-.8-.6-1.6-.6-2.4,0-1,.3-2,.8-2.9.6-1,1.5-1.7,2.5-2.2,1.1-.6,2.5-.8,4.2-.8,1,0,2,0,3,.2.7,0,1.4.3,2.1.6.1,0,.2.1.2.2,0,0,0,.2,0,.3v3.9c0,0,0,.2-.1.2-.1,0-.2,0-.3,0"/>
</svg>